<svg width="24" height="24" viewBox="0 0 24 24" fill="none" xmlns="http://www.w3.org/2000/svg">
<circle cx="12" cy="12" r="12" fill="#F87951"/>
<path d="M16.9694 10.9856H13.1489V7.02616C13.1489 6.4592 12.6898 6 12.123 6C11.5561 6 11.097 6.4592 11.097 7.02616V10.9856H7.02128C6.45911 10.9856 6 11.4447 6 12.0117C6 12.5787 6.45911 13.0379 7.02596 13.0379H11.1017V16.9738C11.1017 17.5408 11.5608 18 12.1277 18C12.6945 18 13.1536 17.5408 13.1536 16.9738V13.0379H16.974C17.5409 13.0379 18 12.5787 18 12.0117C17.993 11.4447 17.5362 10.9856 16.9694 10.9856Z" fill="white"/>
</svg>
